# Blender 4.5.1 LTS
# www.blender.org
mtllib newRoom.mtl
o Cube
v -23.000000 0.000000 23.000000
v -23.000000 10.000000 23.000000
v -23.000000 0.000000 -23.000000
v -23.000000 10.000000 -23.000000
v 23.000000 0.000000 23.000000
v 23.000000 10.000000 23.000000
v 23.000000 0.000000 -23.000000
v 23.000000 10.000000 -23.000000
vn 1.0000 -0.0000 -0.0000
vn -0.0000 -0.0000 1.0000
vn -1.0000 -0.0000 -0.0000
vn -0.0000 -0.0000 -1.0000
vn -0.0000 1.0000 -0.0000
vn -0.0000 -1.0000 -0.0000
vt 0.991226 0.661581
vt 0.501893 0.767957
vt 0.501893 0.661581
vt 0.992185 0.882918
vt 0.502851 0.989295
vt 0.502851 0.882918
vt 0.992076 0.550227
vt 0.502742 0.656604
vt 0.502742 0.550227
vt 0.992185 0.772210
vt 0.502851 0.878587
vt 0.502851 0.772210
vt 0.010697 0.500000
vt 0.500031 0.010666
vt 0.500031 0.500000
vt 0.010697 0.989334
vt 0.500031 0.500000
vt 0.500031 0.989334
vt 0.991226 0.767958
vt 0.992185 0.989295
vt 0.992076 0.656604
vt 0.992185 0.878587
vt 0.010697 0.010666
vt 0.010697 0.500000
s 0
f 3/1/1 2/2/1 1/3/1
f 7/4/2 4/5/2 3/6/2
f 5/7/3 8/8/3 7/9/3
f 1/10/4 6/11/4 5/12/4
f 1/13/5 7/14/5 3/15/5
f 6/16/6 4/17/6 8/18/6
f 3/1/1 4/19/1 2/2/1
f 7/4/2 8/20/2 4/5/2
f 5/7/3 6/21/3 8/8/3
f 1/10/4 2/22/4 6/11/4
f 1/13/5 5/23/5 7/14/5
f 6/16/6 2/24/6 4/17/6
