# Blender 4.5.2 LTS
# www.blender.org
mtllib roomWall_v2.mtl
o Cube
v -11.500000 0.000000 11.500000
v -11.500000 10.000000 11.500000
v -11.500000 0.000000 -11.500000
v -11.500000 10.000000 -11.500000
v 11.500000 0.000000 11.500000
v 11.500000 10.000000 11.500000
v 11.500000 0.000000 -11.500000
v 11.500000 10.000000 -11.500000
vn 1.0000 -0.0000 -0.0000
vn -0.0000 -0.0000 1.0000
vn -1.0000 -0.0000 -0.0000
vn -0.0000 -0.0000 -1.0000
vn -0.0000 -1.0000 -0.0000
vt 0.520154 0.884869
vt 0.004580 0.996950
vt 0.004580 0.884869
vt 0.520468 0.766161
vt 0.004894 0.878243
vt 0.004894 0.766161
vt 0.520422 0.646996
vt 0.004848 0.759077
vt 0.004848 0.646996
vt 0.520422 0.531814
vt 0.004848 0.643896
vt 0.004848 0.531814
vt 0.003849 0.521858
vt 0.519424 0.006284
vt 0.519424 0.521858
vt 0.520154 0.996950
vt 0.520468 0.878243
vt 0.520422 0.759077
vt 0.520422 0.643896
vt 0.003849 0.006284
s 0
f 3/1/1 2/2/1 1/3/1
f 7/4/2 4/5/2 3/6/2
f 5/7/3 8/8/3 7/9/3
f 1/10/4 6/11/4 5/12/4
f 6/13/5 4/14/5 8/15/5
f 3/1/1 4/16/1 2/2/1
f 7/4/2 8/17/2 4/5/2
f 5/7/3 6/18/3 8/8/3
f 1/10/4 2/19/4 6/11/4
f 6/13/5 2/20/5 4/14/5
