# Blender 4.5.1 LTS
# www.blender.org
mtllib room.mtl
o Plane
v 1.000000 0.000000 1.000000
v -1.000000 0.000000 -1.000000
v -1.000000 0.000000 1.000000
v -1.000000 1.994613 -1.000000
v -1.000000 1.994613 1.000000
v 1.000000 1.994613 1.000000
v 1.000000 0.000000 -1.000000
v 1.000000 1.994613 -1.000000
vn -0.0000 1.0000 -0.0000
vn 1.0000 -0.0000 -0.0000
vn -0.0000 -0.0000 -1.0000
vn -0.0000 -0.0000 1.0000
vn -0.0000 -1.0000 -0.0000
vt 1.000000 0.000000
vt 0.000000 1.000000
vt 0.000000 0.000000
vt 1.000000 1.000000
s 0
usemtl Material.001
f 1/1/1 2/2/1 3/3/1
f 2/2/2 5/3/2 3/3/2
f 6/3/3 3/3/3 5/3/3
f 7/2/4 4/2/4 2/2/4
f 8/2/5 5/3/5 4/2/5
f 1/1/1 7/4/1 2/2/1
f 2/2/2 4/2/2 5/3/2
f 6/3/3 1/3/3 3/3/3
f 7/2/4 8/2/4 4/2/4
f 8/2/5 6/3/5 5/3/5
o Cube
v 3.159907 0.444667 1.380896
v 3.159907 2.444667 1.380896
v 3.159907 0.444667 -0.619104
v 3.159907 2.444667 -0.619104
v 5.159907 0.444667 1.380896
v 5.159907 2.444667 1.380896
v 5.159907 0.444667 -0.619104
v 5.159907 2.444667 -0.619104
vn -1.0000 -0.0000 -0.0000
vn -0.0000 -0.0000 -1.0000
vn 1.0000 -0.0000 -0.0000
vn -0.0000 -0.0000 1.0000
vn -0.0000 -1.0000 -0.0000
vn -0.0000 1.0000 -0.0000
vt 0.625000 0.000000
vt 0.375000 0.250000
vt 0.375000 0.000000
vt 0.625000 0.250000
vt 0.375000 0.500000
vt 0.625000 0.500000
vt 0.375000 0.750000
vt 0.625000 0.750000
vt 0.375000 1.000000
vt 0.125000 0.750000
vt 0.125000 0.500000
vt 0.875000 0.500000
vt 0.625000 1.000000
vt 0.875000 0.750000
s 0
f 10/5/6 11/6/6 9/7/6
f 12/8/7 15/9/7 11/6/7
f 16/10/8 13/11/8 15/9/8
f 14/12/9 9/13/9 13/11/9
f 15/9/10 9/14/10 11/15/10
f 12/16/11 14/12/11 16/10/11
f 10/5/6 12/8/6 11/6/6
f 12/8/7 16/10/7 15/9/7
f 16/10/8 14/12/8 13/11/8
f 14/12/9 10/17/9 9/13/9
f 15/9/10 13/11/10 9/14/10
f 12/16/11 10/18/11 14/12/11
